<?xml version="1.0" encoding="UTF-8"?>
<svg width="512" height="512" viewBox="0 0 512 512" fill="none" xmlns="http://www.w3.org/2000/svg">
  <rect width="512" height="512" rx="128" fill="#1976D2"/>
  <path d="M256 128C185.307 128 128 185.307 128 256C128 326.693 185.307 384 256 384C326.693 384 384 326.693 384 256C384 185.307 326.693 128 256 128ZM256 160C309.02 160 352 202.98 352 256C352 309.02 309.02 352 256 352C202.98 352 160 309.02 160 256C160 202.98 202.98 160 256 160Z" fill="white"/>
  <path d="M256 192C220.654 192 192 220.654 192 256C192 291.346 220.654 320 256 320C291.346 320 320 291.346 320 256C320 220.654 291.346 192 256 192ZM256 224C273.673 224 288 238.327 288 256C288 273.673 273.673 288 256 288C238.327 288 224 273.673 224 256C224 238.327 238.327 224 256 224Z" fill="white"/>
  <path d="M256 240C247.163 240 240 247.163 240 256C240 264.837 247.163 272 256 272C264.837 272 272 264.837 272 256C272 247.163 264.837 240 256 240Z" fill="white"/>
</svg>